<?xml version="1.0" encoding="utf-8"?>
<!-- Generator: Adobe Illustrator 21.0.2, SVG Export Plug-In . SVG Version: 6.00 Build 0)  -->
<svg version="1.1" id="图层_1" xmlns="http://www.w3.org/2000/svg" xmlns:xlink="http://www.w3.org/1999/xlink" x="0px" y="0px"
	 viewBox="0 0 553 299.5" style="enable-background:new 0 0 553 299.5;" xml:space="preserve">
<style type="text/css">
	.st0{fill:#9B9B9B;}
	.st1{fill:url(#SVGID_1_);}
	.st2{fill:url(#SVGID_2_);}
	.st3{fill:url(#SVGID_3_);}
	.st4{fill:url(#SVGID_4_);}
	.st5{fill:#B5B5B6;}
	.st6{fill:#2CA0EC;}
	.st7{fill:#FFFFFF;}
	.st8{fill:#079CE9;}
	.st9{fill:#17A3EB;}
	.st10{fill:#35DB60;}
	.st11{fill:#4BA81A;}
</style>
<title>icons1</title>
<path class="st0" d="M222.4,15.9c0.3-0.5,0.2-1.2-0.2-1.6c-0.5-0.4-1.2-0.3-1.6,0.2l0,0c-0.1,0.1-6.5,7.6-14.1,7.6
	c-7.4,0-14.1-7.6-14.1-7.7c-0.4-0.5-1.1-0.5-1.6-0.1c-0.5,0.4-0.5,1.1-0.1,1.6c1.1,1.3,2.3,2.4,3.7,3.5l-2.9,3
	c-0.4,0.4-0.4,1.1,0,1.6c0,0,0,0,0,0l0,0c0.1,0.2,0.4,0.4,0.7,0.4c0.3,0,0.6-0.1,0.9-0.3l3.2-3.3c1.6,1.1,3.4,2,5.2,2.7l-1.2,4.1
	c-0.2,0.6,0.2,1.2,0.8,1.4h0.4c0.5,0,1-0.4,1.1-0.9l1.2-4.1c1.9,0.4,3.9,0.4,5.8,0l1.2,4c0.1,0.5,0.6,0.9,1.1,0.9
	c0.1,0,0.2,0,0.3-0.1c0.6-0.2,1-0.8,0.8-1.4l0,0l-1.2-4c1.9-0.7,3.6-1.6,5.2-2.7l3.1,3.2c0.4,0.4,1.1,0.4,1.6,0l0,0
	c0.4-0.4,0.5-1.1,0.1-1.6l-2.9-3C220,18.3,221.3,17.2,222.4,15.9"/>
<path id="SVGID" class="st0" d="M206.6,64.2c-12.8,0-20.5,13.2-20.5,13.2s8.9,12.8,20.5,12.8s20.5-12.8,20.5-12.8
	S219.4,64.2,206.6,64.2 M219.8,82.2c-4.3,3.6-8.8,5.9-13.3,5.9s-9-2.2-13.3-5.9c-1.5-1.3-2.9-2.7-4.2-4.2c-0.3-0.3-0.4-0.5-0.7-0.8
	c0.1-0.3,0.4-0.5,0.5-0.8c1.1-1.5,2.4-3,3.8-4.3c4.1-3.8,8.6-6.1,13.7-6.1s9.6,2.3,13.7,6.1c1.4,1.3,2.7,2.8,3.9,4.3
	c0.1,0.3,0.4,0.5,0.5,0.8c-0.2,0.3-0.4,0.6-0.7,0.8C222.6,79.5,221.2,80.9,219.8,82.2"/>
<path class="st0" d="M206.5,69.3c-3.9-0.1-7.2,3.1-7.3,7s3.1,7.2,7,7.3c3.9,0.1,7.2-3.1,7.3-7v-0.1
	C213.5,72.6,210.4,69.4,206.5,69.3 M206.5,81.7c-2.8,0-5.1-2.2-5.2-5.1c0-2.8,2.2-5.1,5.1-5.2c2.8,0,5.1,2.2,5.2,5.1l0,0
	C211.5,79.3,209.3,81.6,206.5,81.7"/>
<linearGradient id="SVGID_1_" gradientUnits="userSpaceOnUse" x1="293.0946" y1="338.6413" x2="329.1746" y2="338.6413" gradientTransform="matrix(1 0 0 1 0.28 -314.9)">
	<stop  offset="0" style="stop-color:#11CBF6"/>
	<stop  offset="0.81" style="stop-color:#1EA5EB"/>
</linearGradient>
<path class="st1" d="M329.2,25.9L313.3,8.1c-0.9-1-2.5-1.1-3.5-0.2c-0.1,0.1-0.2,0.2-0.2,0.2l-15.9,17.8c-0.3,0.4-0.3,0.9,0.1,1.3
	c0.4,0.3,0.9,0.3,1.3-0.1c0,0,0,0,0,0l0,0l3.8-4.3v14.6c0,1.5,1.2,2.7,2.7,2.7h6.3v-9.9c-0.1-0.5,0.3-1,0.9-1.1c0,0,0,0,0,0h5.4
	c0.5,0.1,1,0.5,0.9,1.1l0,0v9.9h6.3c1.5,0,2.7-1.2,2.7-2.7V22.9l3.8,4.3c0.3,0.4,0.9,0.4,1.3,0.1c0,0,0,0,0,0l0,0
	C329.5,26.9,329.5,26.3,329.2,25.9L329.2,25.9z"/>
<g>
	<linearGradient id="SVGID_2_" gradientUnits="userSpaceOnUse" x1="400.7423" y1="18.37" x2="429.4122" y2="18.37">
		<stop  offset="0" style="stop-color:#11CBF6"/>
		<stop  offset="0.81" style="stop-color:#1EA5EB"/>
	</linearGradient>
	<path class="st2" d="M425.5,8.3h-20.9c-2,0-3.7,1.5-3.9,3.5c0,0.1,0,0.1,0,0.2c0,0.4,0.4,0.8,0.8,0.8l0,0l0,0
		c0.4,0,0.8-0.3,0.8-0.7l0,0c0.1-1.2,1.1-2.2,2.4-2.2h20.7c1.3,0,2.4,1.1,2.4,2.4c0,0,0,0,0,0l0,0v12.3c0,1.3-1,2.3-2.2,2.4l0,0
		c-0.4,0-0.8,0.4-0.8,0.8c0,0.4,0.4,0.8,0.8,0.8c0,0,0,0,0,0h0.2c2-0.1,3.6-1.8,3.6-3.9V12.1C429.4,10,427.6,8.3,425.5,8.3
		L425.5,8.3z"/>
	<linearGradient id="SVGID_3_" gradientUnits="userSpaceOnUse" x1="395.41" y1="26.5626" x2="423.1507" y2="26.5626">
		<stop  offset="0" style="stop-color:#11CBF6"/>
		<stop  offset="0.81" style="stop-color:#1EA5EB"/>
	</linearGradient>
	<path class="st3" d="M419.3,14.4h-20c-2.2,0-3.9,1.7-3.9,3.9v12.5c0,2.2,1.7,3.9,3.9,3.9h1.8l2.6,3.3c0.5,0.8,1.7,1.1,2.5,0.5
		c0.2-0.1,0.4-0.3,0.5-0.5l2.6-3.4h9.8c2.2,0,3.9-1.7,3.9-3.9V18.3C423.1,16.1,421.4,14.4,419.3,14.4z M401.1,21.2h9.8c0,0,0,0,0,0
		c0.4,0,0.8,0.4,0.8,0.8c0,0.4-0.4,0.8-0.8,0.8h-9.8c0,0,0,0,0,0c-0.4,0-0.8-0.4-0.8-0.8C400.3,21.5,400.7,21.2,401.1,21.2z
		 M417,27.8h-15.9c0,0,0,0,0,0c-0.4,0-0.8-0.4-0.8-0.8c0-0.4,0.4-0.8,0.8-0.8H417c0,0,0,0,0,0c0.4,0,0.8,0.4,0.8,0.8
		C417.8,27.5,417.4,27.8,417,27.8z"/>
</g>
<linearGradient id="SVGID_4_" gradientUnits="userSpaceOnUse" x1="490.09" y1="337.1636" x2="520.0834" y2="337.1636" gradientTransform="matrix(1 0 0 1 0.28 -314.9)">
	<stop  offset="0" style="stop-color:#11CBF6"/>
	<stop  offset="0.81" style="stop-color:#1EA5EB"/>
</linearGradient>
<path class="st4" d="M520.4,34.5c0,0.4,0,1-0.1,1.8h-29.9v-2.8c0.3-1,0.9-1.8,1.8-2.4c1-0.7,2-1.2,3.1-1.5c1.2-0.4,2.4-0.8,3.5-1.3
	c1-0.4,2-1,2.7-1.8c0.3-0.3,0.4-0.7,0.5-1.1c0-0.7-0.1-1.3-0.3-2c-0.1-0.3-0.2-0.7-0.3-1c-0.1-0.3-0.3-0.6-0.5-0.9
	c-0.2-0.3-0.3-0.6-0.4-0.9c-0.4-1.2-0.7-2.4-0.9-3.7c-0.1-0.7-0.2-1.4-0.2-2.1c-0.1-1.7,0.4-3.5,1.5-4.8c2.5-2.4,6.4-2.4,8.8,0
	c1.1,1.3,1.6,3,1.5,4.7c0,0.7-0.1,1.4-0.2,2.1c-0.2,1.3-0.5,2.5-0.9,3.7c-0.1,0.3-0.3,0.6-0.4,0.9c-0.2,0.3-0.3,0.6-0.5,0.9
	c-0.1,0.3-0.2,0.7-0.3,1c-0.2,0.7-0.3,1.3-0.3,2c0,0.4,0.2,0.8,0.5,1.1c0.8,0.8,1.7,1.4,2.7,1.8c1.1,0.5,2.3,1,3.5,1.3
	c1.1,0.3,2.2,0.8,3.1,1.5c0.9,0.5,1.5,1.4,1.8,2.4c0.1,0.3,0.1,0.7,0.1,1"/>
<path id="SVGID-2" class="st5" d="M322.2,89.5c0,0.5-0.4,0.9-0.9,0.9c0,0,0,0,0,0h-4.5v-8.2c0-1.5-1.2-2.7-2.7-2.7h-5.4
	c-1.5,0-2.7,1.2-2.7,2.7v8.2h-4.5c-0.5,0-0.9-0.4-0.9-0.9V72.8l10.3-11.5c0.2-0.3,0.7-0.4,1-0.1c0,0,0,0,0,0l0,0l0.1,0.1l10.3,11.5
	L322.2,89.5z M315,90.4h-7.2v-8.2c0-0.5,0.4-0.9,0.9-0.9h5.4c0.5,0,0.9,0.4,0.9,0.9V90.4z M329.2,77.9l-15.9-17.8
	c-0.9-1-2.5-1.1-3.5-0.2c-0.1,0.1-0.2,0.2-0.2,0.2l-15.9,17.8c-0.3,0.4-0.3,0.9,0.1,1.3c0.4,0.3,0.9,0.3,1.3-0.1c0,0,0,0,0,0l0,0
	l3.8-4.3v14.6c0,1.5,1.2,2.7,2.7,2.7h19.8c1.5,0,2.7-1.3,2.7-2.7V74.9l3.8,4.3c0.3,0.4,0.9,0.4,1.3,0.1c0,0,0,0,0,0l0,0
	C329.5,78.9,329.5,78.3,329.2,77.9L329.2,77.9z"/>
<path class="st5" d="M401.1,75.8h9.8c0.4,0,0.8-0.4,0.8-0.8s-0.4-0.8-0.8-0.8h-9.8c-0.4,0-0.8,0.4-0.8,0.8S400.7,75.8,401.1,75.8z
	 M425.5,61.3h-20.9c-2,0-3.7,1.5-3.9,3.5c0,0.1,0,0.1,0,0.2c0,0.4,0.4,0.8,0.8,0.8l0,0l0,0c0.4,0,0.8-0.3,0.8-0.7l0,0
	c0.1-1.2,1.1-2.2,2.4-2.2h20.7c1.3,0,2.4,1.1,2.4,2.4v0l0,0v12.3c0,1.3-1,2.3-2.2,2.4l0,0c-0.4,0-0.8,0.4-0.8,0.8s0.4,0.8,0.8,0.8
	h0.2c2-0.1,3.6-1.8,3.6-3.9V65.2C429.4,63,427.6,61.3,425.5,61.3L425.5,61.3z M421.6,83.7c0,1.3-1.1,2.4-2.4,2.4l0,0h-10.1
	c-0.1,0-0.3,0-0.4,0.1l0,0c-0.1,0.1-0.3,0.2-0.3,0.4v-0.1l-2.8,3.6l0,0c0,0.1-0.2,0.2-0.3,0.2c-0.1,0-0.2-0.1-0.2-0.2l0,0l-2.8-3.6
	v0.1c-0.1-0.2-0.2-0.3-0.4-0.3h0.1c-0.1-0.1-0.3-0.1-0.4-0.1h-2.2c-1.3,0-2.3-1.1-2.3-2.4V71.4c0-1.3,1.1-2.4,2.4-2.4l0,0h19.9
	c1.3,0,2.4,1.1,2.4,2.4v0l0,0L421.6,83.7L421.6,83.7z M419.3,67.4h-20c-2.2,0-3.9,1.7-3.9,3.9v12.5c0,2.2,1.7,3.9,3.9,3.9h1.8
	l2.6,3.3l0,0c0.5,0.8,1.7,1.1,2.5,0.5c0.2-0.1,0.4-0.3,0.5-0.5l0,0l2.6-3.3h9.8c2.2,0,3.9-1.7,3.9-3.9V71.3
	C423.1,69.1,421.4,67.4,419.3,67.4L419.3,67.4z M417,79.3h-15.9c-0.4,0-0.8,0.4-0.8,0.8s0.4,0.8,0.8,0.8H417c0.4,0,0.8-0.4,0.8-0.8
	S417.4,79.3,417,79.3z"/>
<path class="st5" d="M521,91h-31.3v-2.5c0-0.4,0-0.8,0-1.1c0.3-1.2,1.1-2.2,2.1-2.9c1-0.7,2.1-1.2,3.3-1.6c1.2-0.3,2.3-0.8,3.4-1.3
	c0.9-0.3,1.8-0.9,2.5-1.6c0.2-0.2,0.3-0.4,0.3-0.6c0-0.6-0.1-1.3-0.3-1.9c-0.1-0.3-0.1-0.6-0.3-0.9c-0.1-0.3-0.3-0.6-0.4-0.8
	c-0.2-0.3-0.3-0.7-0.5-1c-0.5-1.2-0.8-2.5-1-3.8c-0.1-0.7-0.2-1.5-0.2-2.2c-0.1-1.9,0.5-3.7,1.7-5.2c2.8-2.7,7.2-2.7,10,0
	c1.2,1.5,1.8,3.3,1.7,5.2c0,0.7-0.1,1.5-0.2,2.2c-0.2,1.3-0.5,2.6-1,3.9c-0.1,0.3-0.3,0.6-0.5,0.9c-0.2,0.3-0.3,0.6-0.4,0.9
	c-0.1,0.3-0.2,0.6-0.3,0.9c-0.2,0.6-0.3,1.3-0.3,1.9c0,0.2,0.1,0.4,0.3,0.6c0.7,0.7,1.5,1.3,2.5,1.6c1.1,0.5,2.2,0.9,3.4,1.3
	c1.2,0.4,2.3,0.9,3.3,1.6c1,0.6,1.8,1.6,2.1,2.8c0.1,0.4,0.1,0.8,0.1,1.2c0,0.4,0,1-0.1,1.8L521,91z M491.1,89.5h28.5v-1
	c0-0.3,0-0.6,0-0.8c-0.2-0.8-0.8-1.5-1.5-1.9c-0.9-0.6-1.9-1.1-2.9-1.4c-1.2-0.4-2.4-0.8-3.6-1.3c-1.1-0.4-2.2-1.1-3-2
	c-0.4-0.4-0.6-1-0.7-1.6c0-0.7,0.1-1.5,0.3-2.2c0.1-0.4,0.2-0.8,0.3-1.2c0.1-0.3,0.3-0.7,0.5-1c0.2-0.3,0.3-0.6,0.4-0.8
	c0.4-1.1,0.7-2.3,0.9-3.5c0.1-0.7,0.2-1.3,0.2-2c0.1-1.5-0.4-3-1.3-4.2c-2.2-2-5.5-2-7.7,0c-0.9,1.2-1.4,2.7-1.3,4.2
	c0,0.7,0.1,1.3,0.2,2c0.2,1.2,0.5,2.4,0.9,3.5c0.1,0.3,0.3,0.6,0.4,0.8c0.2,0.3,0.3,0.7,0.5,1c0.2,0.4,0.3,0.8,0.3,1.2
	c0.2,0.7,0.3,1.5,0.3,2.2c0,0.6-0.3,1.1-0.6,1.5c-0.8,0.9-1.9,1.6-3,2.1c-1.2,0.5-2.4,1-3.6,1.3c-1,0.3-2,0.8-2.9,1.4
	c-0.7,0.4-1.2,1.1-1.5,1.9l0,0L491.1,89.5L491.1,89.5z"/>
<path class="st6" d="M126.3,171.7c0-0.5-0.4-0.9-0.9-0.9h-5.1c-0.5,0-0.9,0.4-0.9,0.9c0,0.5,0.4,0.9,0.9,0.9c0,0,0,0,0,0h5.1
	C125.9,172.6,126.3,172.2,126.3,171.7C126.3,171.7,126.3,171.7,126.3,171.7L126.3,171.7L126.3,171.7z M120.3,162.6
	c-0.5,0-0.9,0.4-0.9,0.9c0,0.5,0.4,0.9,0.9,0.9c0,0,0,0,0,0h5.1c0.5,0,0.9-0.4,0.9-0.9c0-0.5-0.4-0.9-0.9-0.9c0,0,0,0,0,0H120.3z
	 M120.3,156.1h5.1c0.5,0,0.9-0.4,0.9-0.9c0-0.5-0.4-0.9-0.9-0.9c0,0,0,0,0,0h-5.1c-0.5,0-0.9,0.4-0.9,0.9
	C119.4,155.7,119.8,156.1,120.3,156.1C120.3,156.1,120.3,156.1,120.3,156.1z"/>
<path class="st6" d="M153.1,144.3h-28.2c-1.8,0-3.3,1.4-3.3,3.2c0,0,0,0,0,0l0,0v4.4c0,0.6,0.5,1.1,1.1,1.1c0.6,0,1.1-0.5,1.1-1.1
	v-4.4c0-0.6,0.5-1.1,1.1-1.1c0,0,0,0,0,0h28.3c0.6,0,1.1,0.5,1.1,1.1v32.4c0,0.6-0.5,1.1-1.1,1.1c0,0,0,0,0,0h-28.2
	c-0.6,0-1.1-0.5-1.1-1.1v-4.7c0-0.6-0.5-1.1-1.1-1.1c-0.6,0-1.1,0.5-1.1,1.1l0,0l0,0v4.8c0,1.8,1.5,3.2,3.3,3.2c0,0,0,0,0,0h28.3
	c1.8,0,3.3-1.4,3.3-3.2c0,0,0,0,0,0l0,0v-32.5C156.3,145.7,154.9,144.3,153.1,144.3z"/>
<path class="st6" d="M133.6,161.4c0-3.2,2.6-5.9,5.8-5.9c3.2,0,5.9,2.6,5.9,5.8c0,3.2-2.6,5.9-5.8,5.9l0,0
	C136.2,167.2,133.6,164.6,133.6,161.4C133.6,161.4,133.6,161.4,133.6,161.4L133.6,161.4L133.6,161.4z M130.3,172.9h1.9
	c1.5-2.4,4.1-3.9,6.9-4h0.6c2.8,0.1,5.4,1.6,6.9,4h1.9c-1.1-2.3-3-4.1-5.4-5c3.7-2,5-6.7,2.9-10.3c-2-3.7-6.7-5-10.3-2.9
	c-3.7,2-5,6.7-2.9,10.3c0.7,1.2,1.7,2.3,2.9,2.9C133.4,168.9,131.4,170.7,130.3,172.9z"/>
<path class="st7" d="M305.3,157.4l16.2-16.1c0.5-0.4,0.6-1.2,0.1-1.7c-0.4-0.5-1.2-0.6-1.7-0.1l-17.2,17.2c-0.5,0.4-0.5,1.2,0,1.7
	l17,17c0.2,0.3,0.5,0.4,0.8,0.4c0,0,0.1,0,0.1,0c0.3,0,0.5-0.1,0.8-0.3c0.3-0.2,0.4-0.5,0.4-0.8c0-0.3-0.1-0.6-0.3-0.9L305.3,157.4z
	"/>
<path class="st7" d="M413.2,172.3c-0.6,0-1.2-0.2-1.7-0.6c0,0-7.3-5.6-11-10.8l-0.5-0.8c-1.1-1.7-2.6-3.9-2.6-6.9
	c0-5.9,3.5-9.9,8.7-9.9c2.7,0,5.4,2.1,7.2,4.1c1.8-2.1,4.5-4.1,7.2-4.1c5.3,0,8.9,4.1,8.9,9.9c0,3-1.6,5.4-2.8,7.1l-0.5,0.7
	c-3.6,5-11,10.6-11.1,10.6C414.5,172,413.9,172.2,413.2,172.3L413.2,172.3z M406.1,145.3c-4.1,0-6.7,3.1-6.7,7.9
	c0,2.4,1.2,4.2,2.3,5.8l0.5,0.8c3.5,4.8,10.5,10.3,10.6,10.3c0.1,0.1,0.3,0.2,0.5,0.2l0,0c0.2,0,0.4-0.1,0.5-0.2
	c0.1-0.1,7.3-5.5,10.6-10.2l0.5-0.7c1.1-1.6,2.5-3.6,2.5-6c0-4.7-2.8-7.9-6.9-7.9c-2.2,0-4.8,2.2-6.4,4.4l-0.8,1.1l-0.8-1.1
	C410.9,147.5,408.3,145.3,406.1,145.3z"/>
<path class="st7" d="M512.4,143.3c-2.6,0-5.3,2.1-7.2,4.1c-1.8-2.1-4.5-4.1-7.2-4.1c-5.2,0-8.7,4-8.7,9.9c0,3,1.4,5.1,2.6,6.9
	l0.5,0.8c3.7,5.2,11,10.8,11,10.8c0.5,0.4,1.1,0.6,1.7,0.6l0,0c0.6,0,1.2-0.2,1.7-0.6c0.1,0,7.5-5.6,11.1-10.6l0.5-0.7
	c1.2-1.7,2.8-4.1,2.8-7.1C521.3,147.3,517.7,143.3,512.4,143.3z"/>
<path class="st8" d="M113.5,37.7c-6.9,0-12.5-5.6-12.5-12.5c0-6.9,5.6-12.5,12.5-12.5c6.9,0,12.5,5.6,12.5,12.5
	C126,32.1,120.4,37.7,113.5,37.7C113.5,37.7,113.5,37.7,113.5,37.7z M113.5,13.7c-6.4,0-11.5,5.2-11.5,11.5s5.2,11.5,11.5,11.5
	c6.3,0,11.5-5.2,11.5-11.5C125,18.9,119.9,13.7,113.5,13.7C113.5,13.7,113.5,13.7,113.5,13.7z"/>
<path class="st8" d="M113.5,92.7c-6.9,0-12.5-5.6-12.5-12.5s5.6-12.5,12.5-12.5S126,73.3,126,80.2S120.4,92.7,113.5,92.7L113.5,92.7
	z M113.5,68.7c-6.4,0-11.5,5.1-11.5,11.5s5.1,11.5,11.5,11.5S125,86.6,125,80.2l0,0l0,0C125,73.9,119.8,68.7,113.5,68.7z"/>
<circle class="st9" cx="113.5" cy="80.2" r="7"/>
<g>
	<g>
		<circle class="st10" cx="28.7" cy="164.2" r="20"/>
		<path class="st11" d="M28.7,184.7c-11.3,0-20.5-9.2-20.5-20.5s9.2-20.5,20.5-20.5s20.5,9.2,20.5,20.5S40,184.7,28.7,184.7z
			 M28.7,144.7c-10.8,0-19.5,8.7-19.5,19.5s8.7,19.5,19.5,19.5s19.5-8.7,19.5-19.5S39.5,144.7,28.7,144.7z"/>
	</g>
	<g>
		<polygon class="st7" points="26.3,174.5 16.9,164.9 18.3,163.5 26.2,171.4 39.5,154 41,155.2 		"/>
	</g>
</g>
<path class="st8" d="M213.5,173.4l-0.4-0.4c-0.4-0.4-9.1-10.8-9.1-16c0-5.2,4.2-9.5,9.5-9.5s9.5,4.2,9.5,9.5c0,5.2-8.7,15.6-9.1,16
	L213.5,173.4z M213.5,148.2c-4.7,0.1-8.5,4-8.5,8.7c0,4.3,6.8,12.8,8.5,14.9c1.7-2.1,8.5-10.7,8.5-14.9
	C222,152.2,218.2,148.3,213.5,148.2L213.5,148.2z"/>
<path class="st8" d="M213.4,161c-2.3,0-4.2-1.8-4.3-4.1c0-2.3,1.8-4.2,4.1-4.3s4.2,1.8,4.3,4.1c0,0,0,0.1,0,0.1
	C217.5,159.1,215.6,161,213.4,161z M213.4,153.6c-1.8,0-3.2,1.3-3.3,3.1c0,1.8,1.3,3.2,3.1,3.3c1.8,0,3.2-1.3,3.3-3.1
	c0,0,0-0.1,0-0.1C216.5,155.1,215.1,153.6,213.4,153.6L213.4,153.6z"/>
<g>
	<polygon class="st0" points="11.8,35.1 9.7,32.9 17.3,25.3 9.7,17.7 11.8,15.6 21.6,25.3 	"/>
</g>
<g>
	<polygon class="st0" points="6,72.3 8.1,70.2 15.7,77.8 23.4,70.2 25.5,72.3 15.7,82 	"/>
</g>
<g>
	<path class="st6" d="M36.9,236.1c-0.9,0-1.5,0.7-1.5,1.5v18.4c0,0.8,0.7,1.5,1.5,1.5h15.4c0.8,0,1.5-0.7,1.5-1.5
		c0-0.9-0.7-1.5-1.5-1.5H38.4v-16.9C38.4,236.8,37.7,236.1,36.9,236.1z"/>
	<path class="st6" d="M68.5,260.1c0-0.1,0.1-0.3,0.1-0.4c4.4-16.4-5.4-33.2-21.7-37.6c-7.9-2.1-16.2-1-23.3,3.1
		c-7.1,4.1-12.2,10.7-14.3,18.7C4.9,260.2,14.6,277,31,281.4c2.6,0.7,5.3,1.1,8,1.1c5.6,0,11.1-1.5,16-4.5c0.7-0.4,1-1.4,0.5-2.1
		c-0.4-0.7-1.4-0.9-2.1-0.5c-6.5,4-14.2,5.1-21.6,3.1c-14.7-3.9-23.5-19.1-19.6-33.9c1.9-7.1,6.5-13.1,12.9-16.8
		c6.4-3.7,13.8-4.7,21-2.8c7.1,1.9,13.1,6.5,16.8,12.9c3.7,6.4,4.7,13.8,2.8,20.9c-0.2,0-0.3-0.1-0.5-0.1c-2.8,0-5.1,2.3-5.1,5.1
		c0,2.8,2.3,5.1,5.1,5.1c2.8,0,5.1-2.3,5.1-5.1C70.2,262.4,69.6,261,68.5,260.1z"/>
</g>
</svg>
