<svg id="图层_1" data-name="图层 1" xmlns="http://www.w3.org/2000/svg" xmlns:xlink="http://www.w3.org/1999/xlink" viewBox="0 0 571.06 375.87"><defs><style>.cls-1{fill:#9b9b9b;}.cls-2{fill:url(#未命名的渐变);}.cls-3{fill:url(#未命名的渐变_2);}.cls-4{fill:url(#未命名的渐变_3);}.cls-5{fill:#b5b5b6;}.cls-6{fill:#2ca0ec;}.cls-7{fill:#fff;}.cls-8{fill:#079ce9;}.cls-9{fill:#17a3eb;}.cls-10{fill:#35db60;stroke:#4ba81a;}.cls-10,.cls-11{stroke-miterlimit:10;}.cls-11{fill:none;stroke:#fff;stroke-width:2px;}</style><linearGradient id="未命名的渐变" x1="282.09" y1="105.07" x2="318.17" y2="105.07" gradientTransform="matrix(1, 0, 0, -1, 0.28, 233.82)" gradientUnits="userSpaceOnUse"><stop offset="0" stop-color="#11cbf6"/><stop offset="0.81" stop-color="#1ea5eb"/></linearGradient><linearGradient id="未命名的渐变_2" x1="384.1" y1="105.3" x2="418.1" y2="105.3" xlink:href="#未命名的渐变"/><linearGradient id="未命名的渐变_3" x1="479.09" y1="106.55" x2="509.1" y2="106.55" xlink:href="#未命名的渐变"/></defs><title>icons</title><path class="cls-1" d="M145.41,184.1a1.24,1.24,0,0,0-.23-1.61,1.12,1.12,0,0,0-1.61.23c-.06.06-6.46,7.61-14.06,7.61-7.38,0-14.07-7.61-14.12-7.67a1.14,1.14,0,1,0-1.73,1.5,25.7,25.7,0,0,0,3.69,3.46l-2.94,3.05a1.11,1.11,0,0,0,.06,1.61.75.75,0,0,0,.69.35,1.15,1.15,0,0,0,.81-.35l3.17-3.29a22.43,22.43,0,0,0,5.24,2.71l-1.21,4.09a1.15,1.15,0,0,0,.81,1.44h.35a1.11,1.11,0,0,0,1.1-.87l1.21-4.09a14.51,14.51,0,0,0,5.76,0l1.21,4a1.16,1.16,0,0,0,1.1.86.42.42,0,0,0,.29-.06,1.16,1.16,0,0,0,.81-1.44l-1.21-4a22.48,22.48,0,0,0,5.24-2.71l3.11,3.23a1.12,1.12,0,0,0,1.62,0,1.17,1.17,0,0,0,.06-1.61l-2.94-3.05a23,23,0,0,0,3.73-3.4"/><path id="SVGID" class="cls-1" d="M31.86,175.3c-12.77,0-20.49,13.19-20.49,13.19s8.91,12.79,20.49,12.79,20.49-12.79,20.49-12.79S44.63,175.3,31.86,175.3m13.17,18c-4.26,3.63-8.78,5.92-13.3,5.92s-9-2.15-13.3-5.92a40.34,40.34,0,0,1-4.13-4.17c-.27-.27-.4-.54-.66-.81.13-.27.4-.54.53-.81A29.09,29.09,0,0,1,18,183.24c4.13-3.77,8.65-6.06,13.7-6.06s9.58,2.29,13.7,6.06a38.71,38.71,0,0,1,3.86,4.31c.13.27.4.54.53.81a3.52,3.52,0,0,1-.67.81A39.73,39.73,0,0,1,45,193.34"/><path class="cls-1" d="M31.73,180.41a7.13,7.13,0,1,0,7,7.13,7.14,7.14,0,0,0-7-7.13m0,12.38a5.11,5.11,0,1,1,5.06-5.11,5.17,5.17,0,0,1-5.06,5.11"/><path class="cls-2" d="M318.22,130.93l-15.92-17.83a2.49,2.49,0,0,0-3.76,0l-15.93,17.83a.92.92,0,0,0,.06,1.29.89.89,0,0,0,1.27-.07l3.84-4.3v14.65a2.73,2.73,0,0,0,2.71,2.74h6.31v-9.87a1,1,0,0,1,.9-1.1h5.41a1,1,0,0,1,.9,1.1v9.87h6.31a2.73,2.73,0,0,0,2.7-2.74V127.86l3.84,4.3a.89.89,0,0,0,1.27.06A.91.91,0,0,0,318.22,130.93Z"/><path class="cls-3" d="M390.1,127.76h9.82a.79.79,0,0,0,0-1.58H390.1a.79.79,0,1,0,0,1.58Zm24.38-14.51H393.6a3.88,3.88,0,0,0-3.85,3.54.72.72,0,0,0,0,.21.79.79,0,0,0,.79.79.78.78,0,0,0,.78-.74h.05a2.4,2.4,0,0,1,2.38-2.22h20.67a2.42,2.42,0,0,1,2.42,2.42v12.28a2.4,2.4,0,0,1-2.22,2.38v0a.79.79,0,0,0,0,1.58.68.68,0,0,0,.16,0,3.89,3.89,0,0,0,3.64-3.87V117.15a3.9,3.9,0,0,0-3.9-3.9Zm-6.17,6.12h-20a3.9,3.9,0,0,0-3.9,3.9v12.48a3.9,3.9,0,0,0,3.9,3.9h1.81l2.61,3.3,0,0a1.8,1.8,0,0,0,3.05,0l0,0,2.64-3.35h9.84a3.9,3.9,0,0,0,3.9-3.9V123.26A3.89,3.89,0,0,0,408.31,119.37ZM406,131.26H390.1a.79.79,0,1,0,0,1.58H406a.79.79,0,0,0,0-1.58Z"/><path class="cls-4" d="M509.38,139.52c0,.39,0,1-.06,1.77H479.4c0-.19,0-.48,0-.87s0-.69,0-.9c0-.56,0-.91,0-1a4.06,4.06,0,0,1,1.8-2.37,11.15,11.15,0,0,1,3.13-1.49,28,28,0,0,0,3.52-1.32,7.62,7.62,0,0,0,2.72-1.84,1.86,1.86,0,0,0,.48-1.06,11.13,11.13,0,0,0-.31-2,5,5,0,0,0-.29-1,10.19,10.19,0,0,0-.45-.93c-.18-.32-.32-.62-.43-.88a20.19,20.19,0,0,1-.93-3.7,13.62,13.62,0,0,1-.17-2.1A7,7,0,0,1,490,115a6.41,6.41,0,0,1,8.83,0,7,7,0,0,1,1.5,4.71,13.71,13.71,0,0,1-.2,2.1,17.15,17.15,0,0,1-.9,3.7c-.11.26-.26.56-.44.88a10.15,10.15,0,0,0-.45.93,5,5,0,0,0-.29,1,11.22,11.22,0,0,0-.31,2,1.68,1.68,0,0,0,.47,1.06,7.64,7.64,0,0,0,2.72,1.84,27.48,27.48,0,0,0,3.5,1.32,11.13,11.13,0,0,1,3.11,1.49,4.05,4.05,0,0,1,1.79,2.37,5.2,5.2,0,0,1,.06,1"/><path id="SVGID-2" data-name="SVGID" class="cls-5" d="M311.24,194.51a.9.9,0,0,1-.9.91h-4.51V187.2a2.73,2.73,0,0,0-2.71-2.74h-5.41A2.73,2.73,0,0,0,295,187.2v8.22H290.5a.91.91,0,0,1-.9-.91V177.84l10.28-11.51a.7.7,0,0,1,1.08,0l10.28,11.51v16.67Zm-7.21.91h-7.21V187.2a.91.91,0,0,1,.9-.91h5.41a.91.91,0,0,1,.9.91v8.22Zm14.2-12.49-15.92-17.83a2.49,2.49,0,0,0-3.76,0l-15.93,17.83a.92.92,0,0,0,.06,1.29.89.89,0,0,0,1.27-.07l3.84-4.3v14.65a2.73,2.73,0,0,0,2.71,2.74h19.84a2.73,2.73,0,0,0,2.7-2.74V179.86l3.84,4.3a.89.89,0,0,0,1.27.06.92.92,0,0,0,.06-1.29Z"/><path class="cls-5" d="M390.1,180.76h9.82a.79.79,0,1,0,0-1.58H390.1a.79.79,0,1,0,0,1.58Zm24.38-14.51H393.6a3.88,3.88,0,0,0-3.85,3.54.72.72,0,0,0,0,.21.79.79,0,0,0,.79.79.78.78,0,0,0,.78-.74h.05a2.4,2.4,0,0,1,2.38-2.22h20.67a2.42,2.42,0,0,1,2.42,2.42v12.28a2.4,2.4,0,0,1-2.22,2.38v0a.79.79,0,0,0,0,1.58.63.63,0,0,0,.16,0,3.89,3.89,0,0,0,3.64-3.87V170.15a3.9,3.9,0,0,0-3.9-3.9Zm-3.85,22.4a2.42,2.42,0,0,1-2.42,2.42h-10v0l-.1,0a.78.78,0,0,0-.39.12l0,0a.74.74,0,0,0-.31.38l0-.13-2.8,3.55h0a.28.28,0,0,1-.54,0h0l-2.84-3.59v.07a.78.78,0,0,0-.37-.35l.06,0a.78.78,0,0,0-.4-.11h-2.2v0a2.4,2.4,0,0,1-2.27-2.39V176.36a2.42,2.42,0,0,1,2.42-2.42h19.83a2.42,2.42,0,0,1,2.42,2.42v12.29Zm-2.32-16.28h-20a3.9,3.9,0,0,0-3.9,3.9v12.48a3.9,3.9,0,0,0,3.9,3.9h1.81l2.61,3.3,0,0a1.8,1.8,0,0,0,3.05,0l0,0,2.64-3.35h9.84a3.9,3.9,0,0,0,3.9-3.9V176.26A3.89,3.89,0,0,0,408.31,172.36ZM406,184.26H390.1a.79.79,0,1,0,0,1.58H406a.79.79,0,0,0,0-1.58Z"/><path class="cls-5" d="M510,196H478.66v-.75c0-.18,0-.47,0-.85s0-.71,0-.91a10,10,0,0,1,0-1.14,4.8,4.8,0,0,1,2.11-2.89,12,12,0,0,1,3.33-1.59,27.29,27.29,0,0,0,3.43-1.28A7,7,0,0,0,490,185a1.14,1.14,0,0,0,.3-.58,10.45,10.45,0,0,0-.29-1.89,4.47,4.47,0,0,0-.25-.9c-.11-.26-.25-.55-.42-.85s-.35-.67-.47-1a20.72,20.72,0,0,1-1-3.85,14.45,14.45,0,0,1-.18-2.24,7.77,7.77,0,0,1,1.68-5.2,7.14,7.14,0,0,1,10,0,7.81,7.81,0,0,1,1.68,5.2,14.21,14.21,0,0,1-.21,2.22,17.57,17.57,0,0,1-.95,3.88c-.12.28-.28.6-.47.95s-.31.59-.42.86a4,4,0,0,0-.25.88,10.24,10.24,0,0,0-.29,1.91,1,1,0,0,0,.29.58,7,7,0,0,0,2.46,1.64,27.21,27.21,0,0,0,3.41,1.28,12,12,0,0,1,3.32,1.59,4.82,4.82,0,0,1,2.1,2.81,5.19,5.19,0,0,1,.08,1.22q0,.6-.06,1.8Zm-29.89-1.5H508.6c0-.42,0-.76,0-1a5.2,5.2,0,0,0,0-.85,3.31,3.31,0,0,0-1.49-1.93,10.5,10.5,0,0,0-2.9-1.39,28.81,28.81,0,0,1-3.6-1.35,8.29,8.29,0,0,1-3-2,2.4,2.4,0,0,1-.66-1.55,11.55,11.55,0,0,1,.32-2.21,5.51,5.51,0,0,1,.34-1.16q.19-.46.48-1c.16-.3.3-.58.4-.82a16.45,16.45,0,0,0,.85-3.52,13.06,13.06,0,0,0,.19-2,6.37,6.37,0,0,0-1.32-4.23,5.68,5.68,0,0,0-7.69,0,6.34,6.34,0,0,0-1.32,4.23,12.94,12.94,0,0,0,.16,2,19.38,19.38,0,0,0,.88,3.52c.1.25.24.52.4.82a10.51,10.51,0,0,1,.48,1,6,6,0,0,1,.34,1.18,11.62,11.62,0,0,1,.32,2.19,2.51,2.51,0,0,1-.64,1.52,8.29,8.29,0,0,1-3,2.06,28.69,28.69,0,0,1-3.61,1.35,10.43,10.43,0,0,0-2.91,1.39,3.31,3.31,0,0,0-1.48,1.92h0s0,.21,0,.87c0,.2,0,.49,0,.88C480.14,194.44,480.14,194.49,480.14,194.54Z"/><path class="cls-6" d="M115.28,276.67a.89.89,0,0,0-.9-.89h-5.12a.89.89,0,1,0,0,1.78h5.12A.89.89,0,0,0,115.28,276.67Zm-6-9.11a.89.89,0,1,0,0,1.78h5.12a.89.89,0,1,0,0-1.78Zm0-6.47h5.12a.89.89,0,1,0,0-1.78h-5.12a.89.89,0,1,0,0,1.78Z"/><path class="cls-6" d="M142.06,249.29H113.82a3.25,3.25,0,0,0-3.28,3.23v4.41a1.09,1.09,0,0,0,2.18,0v-4.41a1.08,1.08,0,0,1,1.1-1.07h28.24a1.1,1.1,0,0,1,1.1,1.08v32.42a1.09,1.09,0,0,1-1.1,1.08H113.83a1.09,1.09,0,0,1-1.1-1.07V280.2a1.09,1.09,0,0,0-2.18,0V285a3.25,3.25,0,0,0,3.28,3.23h28.24a3.26,3.26,0,0,0,3.28-3.24V252.53A3.27,3.27,0,0,0,142.06,249.29Z"/><path class="cls-6" d="M122.57,266.37a5.84,5.84,0,1,1,5.84,5.8A5.82,5.82,0,0,1,122.57,266.37Zm-3.25,11.57h1.93a8.36,8.36,0,0,1,6.88-4h.58a8.36,8.36,0,0,1,6.88,4h1.93a10.21,10.21,0,0,0-5.41-5,7.6,7.6,0,1,0-7.4,0A10.23,10.23,0,0,0,119.32,277.94Z"/><path class="cls-7" d="M293.86,262.19l16.3-16.29a.71.71,0,1,0-1-1L292.08,262a.68.68,0,0,0,0,1L309.15,280a.71.71,0,1,0,1-1l-16.3-16.35A.36.36,0,0,1,293.86,262.19Z"/><polygon class="cls-1" points="140.38 120.15 129.41 131.25 118.38 119.98 121.08 117.25 129.29 126.12 137.73 117.58 140.38 120.15"/><polygon class="cls-1" points="32.86 137.77 43.96 126.8 32.69 115.77 29.96 118.48 38.83 126.69 30.3 135.13 32.86 137.77"/><path class="cls-7" d="M402.24,277.25a2.7,2.7,0,0,1-1.73-.63s-7.31-5.6-11-10.77l-.52-.79c-1.15-1.74-2.58-3.9-2.58-6.89,0-5.94,3.5-9.93,8.7-9.93,2.67,0,5.37,2.06,7.18,4.15,1.83-2.09,4.53-4.15,7.17-4.15,5.25,0,8.92,4.08,8.92,9.93,0,3-1.62,5.36-2.8,7.1l-.5.74c-3.59,5-11,10.6-11.11,10.65a2.8,2.8,0,0,1-1.69.58Zm-7.16-27c-4.07,0-6.7,3.11-6.7,7.93,0,2.38,1.2,4.19,2.25,5.78l.51.78c3.49,4.84,10.53,10.26,10.6,10.31a.77.77,0,0,0,.5.21v0a.86.86,0,0,0,.51-.19c.09-.07,7.32-5.5,10.65-10.17l.5-.74c1.09-1.6,2.45-3.59,2.45-6,0-4.74-2.78-7.93-6.92-7.93-2.17,0-4.77,2.18-6.37,4.35l-.81,1.09-.8-1.1C399.92,252.5,397.27,250.25,395.08,250.25Z"/><path class="cls-7" d="M501.43,248.25c-2.64,0-5.34,2.06-7.17,4.15-1.81-2.09-4.51-4.15-7.18-4.15-5.21,0-8.71,4-8.71,9.93,0,3,1.43,5.15,2.59,6.89l.52.8c3.72,5.16,11,10.76,11,10.76a2.7,2.7,0,0,0,1.73.63h0a2.81,2.81,0,0,0,1.69-.58c.07-.05,7.52-5.61,11.11-10.65l.5-.74c1.18-1.73,2.8-4.1,2.8-7.1C510.35,252.33,506.68,248.25,501.43,248.25Z"/><path class="cls-8" d="M373.49,74.71A12.5,12.5,0,1,1,386,62.21,12.51,12.51,0,0,1,373.49,74.71Zm0-24A11.5,11.5,0,1,0,385,62.21,11.51,11.51,0,0,0,373.49,50.71Z"/><path class="cls-8" d="M309.92,74.71a12.5,12.5,0,1,1,12.5-12.5A12.51,12.51,0,0,1,309.92,74.71Zm0-24a11.5,11.5,0,1,0,11.5,11.5A11.51,11.51,0,0,0,309.92,50.71Z"/><circle class="cls-9" cx="309.92" cy="62.21" r="7"/><circle class="cls-10" cx="31.73" cy="339.16" r="20"/><polyline class="cls-11" points="20.59 339.16 29.25 347.95 43.25 329.61"/></svg>