<?xml version="1.0" encoding="utf-8"?>
<!-- Generator: Adobe Illustrator 16.0.0, SVG Export Plug-In . SVG Version: 6.00 Build 0)  -->
<!DOCTYPE svg PUBLIC "-//W3C//DTD SVG 1.1//EN" "http://www.w3.org/Graphics/SVG/1.1/DTD/svg11.dtd">
<svg version="1.1" id="图层_1" xmlns="http://www.w3.org/2000/svg" xmlns:xlink="http://www.w3.org/1999/xlink" x="0px" y="0px"
	 width="595.281px" height="831.723px" viewBox="0 0 595.281 831.723" enable-background="new 0 0 595.281 831.723"
	 xml:space="preserve">
<path fill="#C9C9C9" d="M313.092,118.717c0,3.273-6.764,10.256-16.4,10.256c-9.392,0-16.4-6.868-16.4-10.256
	c0-3.386,7.039-10.244,16.4-10.244C306.406,108.473,313.095,115.331,313.092,118.717 M296.707,110.344
	c-4.365,0-7.902,3.751-7.902,8.378c0,4.628,3.538,8.38,7.902,8.38c4.366,0,7.905-3.752,7.905-8.38
	C304.611,114.096,301.072,110.344,296.707,110.344 M296.691,113.375c-2.78,0-5.032,2.388-5.032,5.335
	c0,2.946,2.252,5.336,5.032,5.336s5.032-2.39,5.032-5.336C301.725,115.762,299.474,113.375,296.691,113.375"/>
<path fill="#C9C9C9" d="M587.494,23.442l-4.586-4.607c1.865-2.458,1.675-5.974-0.563-8.214c-2.455-2.45-6.438-2.45-8.896,0
	c-2.454,2.448-2.454,6.42,0,8.869c2.246,2.24,5.771,2.431,8.229,0.574l4.588,4.607c0.146,0.15,0.396,0.15,0.547,0l0.683-0.682
	C587.646,23.837,587.646,23.594,587.494,23.442 M574.613,18.361c-1.803-1.798-1.803-4.714,0-6.513c1.802-1.799,4.729-1.799,6.527,0
	c1.801,1.798,1.801,4.714,0,6.513C579.339,20.161,576.416,20.161,574.613,18.361"/>
<polygon fill="#898989" points="122.514,52.688 132.217,43.828 131.084,42.764 120.217,52.688 130.922,62.764 132.088,61.699 "/>
<polygon fill="#8D8D8D" points="37.167,52.638 30.082,59.489 30.954,60.263 38.89,52.588 30.646,45.263 29.795,46.086 "/>
<polygon fill="#FFFFFF" points="172.516,52.687 182.218,43.828 181.085,42.763 170.218,52.687 180.922,62.763 182.088,61.699 "/>
<path fill="#CB1A1D" d="M367.383,118.717c0,3.273-6.771,10.256-16.396,10.256c-9.396,0-16.398-6.868-16.398-10.256
	c0-3.386,7.039-10.244,16.398-10.244C360.695,108.473,367.385,115.331,367.383,118.717 M350.998,110.344
	c-4.354,0-7.896,3.751-7.896,8.378c0,4.628,3.533,8.38,7.896,8.38s7.902-3.752,7.902-8.38
	C358.9,114.096,355.361,110.344,350.998,110.344 M350.981,113.375c-2.778,0-5.03,2.388-5.03,5.335c0,2.946,2.252,5.336,5.03,5.336
	c2.776,0,5.028-2.39,5.028-5.336C356.016,115.762,353.764,113.375,350.981,113.375"/>
<path fill="#CB1A1D" d="M-37.883,644.263"/>
<path fill="#CB1A1D" d="M-37.883,644.263"/>
<g>
	<g>
		<path fill="#B70514" d="M315.994,20.645c-0.149-0.65-0.25-1.324-0.25-2.002c0-2.903,1.576-5.589,4.063-7.023v9.366h0.854V10.25
			l-0.606,0.283c-1.521,0.71-2.811,1.831-3.729,3.243c-0.94,1.448-1.438,3.134-1.438,4.871c0,0.749,0.085,1.493,0.271,2.21
			c0.009,0.027,0.032,0.102,0.053,0.141l0.86-0.005C316.07,20.964,316,20.667,315.994,20.645z"/>
		<rect x="316.672" y="16.364" fill="#B70514" width="0.854" height="4.616"/>
		<rect x="318.252" y="16.364" fill="#B70514" width="0.859" height="4.616"/>
		<path fill="#B70514" d="M321.786,10.848c0.646-0.166,1.323-0.25,1.999-0.25c2.904,0,5.592,1.575,7.021,4.067h-9.355v0.855h10.731
			l-0.274-0.607c-0.711-1.522-1.85-2.813-3.242-3.729c-1.449-0.943-3.134-1.44-4.879-1.44c-0.748,0-1.492,0.092-2.209,0.276
			c-0.026,0.007-0.104,0.032-0.147,0.051l0.021,0.861C321.465,10.925,321.762,10.855,321.786,10.848z"/>
		<rect x="321.449" y="11.525" fill="#B70514" width="4.617" height="0.854"/>
		<rect x="321.449" y="13.105" fill="#B70514" width="4.617" height="0.855"/>
		<path fill="#B70514" d="M332.434,16.372c-0.019-0.026-0.023-0.102-0.052-0.14l-0.854,0.005c0.006,0.023,0.066,0.321,0.082,0.347
			c0.167,0.65,0.25,1.323,0.25,2.002c0,2.902-1.569,5.587-4.066,7.021v-9.365h-0.854v10.739l0.604-0.285
			c1.521-0.71,2.809-1.832,3.729-3.243c0.938-1.449,1.438-3.133,1.438-4.868C332.709,17.835,332.616,17.092,332.434,16.372z"/>
		<rect x="330.074" y="16.246" fill="#B70514" width="0.854" height="4.614"/>
		<rect x="328.494" y="16.246" fill="#B70514" width="0.854" height="4.614"/>
		<path fill="#B70514" d="M325.813,26.378c-0.646,0.165-1.313,0.248-2.001,0.248c-2.896,0-5.584-1.575-7.021-4.067h9.364v-0.855
			h-10.743l0.287,0.607c0.711,1.523,1.833,2.813,3.244,3.729c1.439,0.941,3.132,1.437,4.859,1.437c0.748,0,1.492-0.092,2.221-0.277
			c0.019-0.007,0.104-0.032,0.141-0.051l-0.008-0.861C326.135,26.301,325.84,26.372,325.813,26.378z"/>
		<rect x="321.535" y="24.848" fill="#B70514" width="4.604" height="0.856"/>
		<rect x="321.535" y="23.266" fill="#B70514" width="4.604" height="0.854"/>
	</g>
	<g>
		<path fill="#B70514" d="M326.146,20.959h-4.691v-4.693h4.691V20.959z M322.306,20.105h2.986v-2.987h-2.986V20.105z"/>
	</g>
</g>
<polygon fill="#B4B4B5" points="145.218,15.505 161.199,28.438 166.867,23.85 145.218,6.332 123.569,23.85 129.238,28.438 "/>
<polygon fill="#8D8D8D" points="76.981,57.195 70.131,50.111 69.356,50.982 77.032,58.918 84.356,50.676 83.534,49.824 "/>
<g opacity="0.7">
	<path fill="#CECECF" d="M74.717,95.016h-29.85c-1.95,0-3.529,1.576-3.529,3.52v2.453c-8.84,1.711-15.531,9.734-15.531,19.375
		c0,9.646,6.69,17.662,15.531,19.373v8.787c0,1.943,1.579,3.521,3.529,3.521h40.238c1.949,0,3.53-1.563,3.53-3.521v-39.426
		L74.717,95.016L74.717,95.016z M29.336,120.361c0-8.555,6.953-15.488,15.53-15.488c8.578,0,15.531,6.938,15.531,15.488
		c0,8.555-6.953,15.49-15.531,15.49C36.29,135.852,29.336,128.916,29.336,120.361L29.336,120.361z M84.398,147.82H45.573v-7.76
		h-0.004c2.83-0.105,5.503-0.855,7.887-2.105h23.179c0.779,0,1.411-0.631,1.411-1.396v-1.41c0-0.777-0.632-1.408-1.411-1.408H58.864
		c1.133-1.264,2.104-2.684,2.886-4.221h14.885c0.779,0,1.411-0.633,1.411-1.412v-1.409c0-0.771-0.632-1.408-1.411-1.408h-13.31
		c0.393-1.563,0.602-3.227,0.602-4.93h12.706c0.78,0,1.411-0.629,1.411-1.406v-1.397c0-0.771-0.631-1.403-1.411-1.403H63.486
		c0,0.002,0,0.002,0,0.004c-1.82-8.629-9.104-15.146-17.913-15.479v-1.43h25.918l0.201,0.197v13.18h12.706V147.82L84.398,147.82z
		 M32.096,137.119l-4.275-3.68c-0.591-0.508-1.482-0.445-1.992,0.145l-6.458,7.479c-0.509,0.588-0.443,1.477,0.147,1.979
		l4.275,3.688c0.591,0.518,1.481,0.438,1.991-0.146l6.458-7.461C32.75,138.516,32.686,137.629,32.096,137.119L32.096,137.119z"/>
</g>
<g>
	<g>
		<path fill="#898989" d="M190.904,10.172c-3.984,0-7.213,3.229-7.213,7.213c0,3.984,3.229,7.213,7.213,7.213
			c3.983,0,7.213-3.229,7.213-7.213C198.117,13.401,194.887,10.172,190.904,10.172L190.904,10.172z M189.439,21.9
			c-0.59,0-1-0.259-1-0.834c0-0.728,0.558-1.971,0.673-2.229l1.146-2.669c0.108-0.272-0.033-0.409-0.164-0.409
			c-0.604,0-1.396,1.319-1.688,1.319c-0.114,0-0.213-0.106-0.213-0.197c0-0.273,0.721-0.91,0.934-1.107
			c0.654-0.577,1.51-1.016,2.454-1.016c0.704,0,1.457,0.394,0.868,1.865l-1.18,2.958c-0.097,0.227-0.277,0.606-0.277,0.849
			c0,0.105,0.066,0.212,0.197,0.212c0.49,0,1.39-1.289,1.62-1.289c0.081,0,0.192,0.091,0.192,0.228
			C193.006,20.02,191.091,21.9,189.439,21.9L189.439,21.9z M192.253,14.212c-0.671,0-1.107-0.41-1.107-1.031
			c0-0.667,0.62-1.213,1.341-1.213c0.655,0,1.131,0.409,1.131,1.031C193.613,13.697,192.99,14.212,192.253,14.212L192.253,14.212z"
			/>
	</g>
</g>
<g>
	
		<rect x="221.624" y="10.172" fill="none" stroke="#CCCCCC" stroke-width="0.5193" stroke-miterlimit="10" width="15.838" height="15.838"/>
	<polygon fill="#CCCCCC" points="234.216,15.103 229.543,22.117 224.87,15.103 	"/>
</g>
<g>
	<path fill="#FFFFFF" d="M277.154,9.453c-1.615,0-3.604,0.619-4.961,1.328c-0.027-0.047-0.043-0.073-0.043-0.073l-1.317-2.197
		c0,0-0.124-0.15-0.394,0.117c-0.264,0.267-3.758,6.526-3.758,6.526s-0.369,0.74,0.184,0.74h7.566c0,0,0.723,0.015,0.34-0.678
		c-0.172-0.309-0.709-1.232-1.252-2.165c0.974-0.488,2.501-0.975,3.637-0.975c3.88,0,7.025,3.147,7.025,7.026
		c0,3.881-3.146,7.027-7.025,7.027c-3.092,0-5.717-1.998-6.656-4.771l-2.781-0.007c1.152,4.287,5.001,7.401,9.438,7.401
		c5.328,0,9.649-4.318,9.649-9.65C286.802,13.774,282.482,9.453,277.154,9.453L277.154,9.453z"/>
</g>
<path fill="#CB1A1D" d="M285.181,54.342c0,1.804-0.771,3.53-2.117,4.735c-0.072,0.063-0.16,0.094-0.248,0.094
	c-0.103,0-0.202-0.042-0.277-0.123c-0.137-0.153-0.124-0.389,0.029-0.525c1.188-1.063,1.869-2.588,1.869-4.181
	c0-1.563-0.66-3.066-1.81-4.125c-0.15-0.14-0.159-0.374-0.021-0.526c0.141-0.151,0.375-0.16,0.526-0.022
	C284.434,50.87,285.181,52.572,285.181,54.342L285.181,54.342z M282.307,54.342c0,1.138-0.504,2.207-1.384,2.93
	c-0.068,0.057-0.152,0.085-0.234,0.085c-0.107,0-0.214-0.045-0.289-0.135c-0.13-0.158-0.107-0.393,0.053-0.523
	c0.706-0.583,1.11-1.441,1.11-2.356c0-0.885-0.384-1.726-1.053-2.307c-0.155-0.134-0.172-0.369-0.037-0.524
	c0.134-0.155,0.369-0.172,0.523-0.037C281.83,52.196,282.307,53.241,282.307,54.342L282.307,54.342z M277.974,60.084l-6.081-2.467
	v-6.298l6.081-2.645V60.084L277.974,60.084z M268.924,57.123v-5.305c0-0.205,0.167-0.372,0.372-0.372h1.853v6.049h-1.853
	C269.091,57.495,268.924,57.328,268.924,57.123L268.924,57.123z M278.55,47.797c-0.104-0.07-0.237-0.081-0.352-0.031l-6.756,2.936
	h-2.146c-0.614,0-1.115,0.501-1.115,1.116v5.305c0,0.615,0.501,1.116,1.115,1.116h2.151l6.759,2.742
	c0.045,0.019,0.092,0.028,0.141,0.028c0.073,0,0.144-0.022,0.207-0.063c0.103-0.07,0.163-0.185,0.163-0.309v-12.53
	C278.717,47.981,278.656,47.865,278.55,47.797L278.55,47.797z"/>
<g>
	<g>
		<path fill="#62BF3E" d="M124.696,121.031c0.853-0.758,4.029-3.417,4.834-4.22c0.799-0.8,1.629-1.572,2.399-2.402
			c0.412-0.127,0.521,0.121,0.762,0.36c0.175,0.176,0.313,0.246,0.398,0.46c0.034,0.174-0.07,0.209-0.078,0.341
			c-1.871,1.838-6.138,5.51-7.976,7.382c-0.121,0.039-0.24,0.08-0.36,0.12c-0.048-0.034-0.108-0.052-0.2-0.04
			c-1.211-1.245-3.352-3.337-4.597-4.548c-0.151-0.583,0.438-0.724,0.642-1.081c0.092-0.015,0.165-0.048,0.239-0.081
			c0.113,0.008,0.169,0.073,0.28,0.081C121.935,118.344,123.786,120.106,124.696,121.031z"/>
	</g>
	<g>
		<path fill="#62BF3E" d="M126.217,129.697c-6.065,0-11-4.935-11-11c0-6.065,4.935-11,11-11c6.065,0,10.999,4.935,10.999,11
			C137.216,124.762,132.285,129.697,126.217,129.697z M126.217,108.99c-5.351,0-9.706,4.354-9.706,9.707
			c0,5.351,4.355,9.706,9.706,9.706c5.352,0,9.706-4.355,9.706-9.706C135.923,113.345,131.569,108.99,126.217,108.99z"/>
	</g>
</g>
<g>
	<g>
		<path fill="#2696E3" d="M214.891,93.859c-7.922-2.122-16.2-1.033-23.31,3.068c-7.104,4.102-12.188,10.727-14.313,18.654
			c-4.385,16.359,5.361,33.234,21.723,37.621c2.646,0.707,5.32,1.059,7.98,1.059c5.566,0,11.053-1.539,15.973-4.542
			c0.725-0.44,0.951-1.386,0.512-2.11c-0.443-0.725-1.391-0.949-2.111-0.512c-6.539,3.996-14.197,5.112-21.559,3.139
			c-14.727-3.945-23.492-19.139-19.551-33.857c1.911-7.134,6.485-13.097,12.883-16.79c6.396-3.692,13.846-4.67,20.979-2.761
			c7.133,1.912,13.096,6.486,16.788,12.882c3.689,6.396,4.671,13.846,2.76,20.979c-0.675,2.521-1.722,4.953-3.111,7.233
			c-0.441,0.726-0.212,1.668,0.513,2.113c0.726,0.438,1.671,0.209,2.112-0.515c1.541-2.531,2.703-5.238,3.453-8.039
			C240.997,115.118,231.251,98.243,214.891,93.859L214.891,93.859z M204.866,107.864c-0.85,0-1.536,0.687-1.536,1.535v18.43
			c0,0.85,0.688,1.536,1.536,1.536h15.355c0.848,0,1.536-0.688,1.536-1.536c0-0.85-0.688-1.535-1.536-1.535H206.4v-16.895
			C206.401,108.551,205.713,107.864,204.866,107.864L204.866,107.864z"/>
	</g>
	<circle fill="#2696E3" cx="233.13" cy="135.69" r="5.09"/>
</g>
<g>
	<path fill="#272536" d="M86.453,20.944c0,0.008-0.001,0.015-0.001,0.022c-0.001,0.004-0.001,0.007-0.001,0.011
		c0,0.006-0.001,0.011-0.002,0.016c-0.001,0.007-0.002,0.013-0.003,0.019c0,0,0,0.001,0,0.002c-0.022,0.141-0.087,0.273-0.188,0.375
		c-0.188,0.227-0.395,0.439-0.602,0.648c-1.122,1.126-2.409,2.131-3.817,2.861c-0.901,0.465-1.862,0.841-2.861,1.022
		c-1.097,0.198-2.195,0.189-3.287-0.046c-1.889-0.407-3.6-1.416-5.095-2.623c-0.695-0.561-1.378-1.174-1.953-1.863
		c-0.25-0.301-0.25-0.659,0-0.96c0.188-0.226,0.396-0.439,0.603-0.648c1.122-1.127,2.409-2.132,3.817-2.861
		c0.901-0.466,1.863-0.842,2.86-1.023c1.098-0.199,2.196-0.188,3.288,0.046c1.888,0.407,3.599,1.417,5.096,2.624
		c0.694,0.56,1.377,1.173,1.951,1.862c0.1,0.102,0.166,0.233,0.188,0.375c0,0,0,0.001,0,0.002c0,0.006,0.002,0.013,0.002,0.019
		c0,0.005,0.001,0.011,0.002,0.016c0,0.003,0,0.008,0,0.012c0.001,0.007,0.001,0.015,0.001,0.022c0,0.012,0.001,0.023,0.001,0.034
		C86.454,20.922,86.453,20.933,86.453,20.944L86.453,20.944z M77.454,17.431c-1.864,0-3.375,1.495-3.375,3.34s1.511,3.34,3.375,3.34
		c1.864,0,3.375-1.495,3.375-3.34S79.318,17.431,77.454,17.431L77.454,17.431z M77.454,22.441c-0.932,0-1.688-0.748-1.688-1.67
		s0.755-1.67,1.688-1.67c0.932,0,1.688,0.748,1.688,1.67S78.385,22.441,77.454,22.441L77.454,22.441z"/>
</g>
<g>
	<path fill="#272536" d="M43.101,22.14l-1.714-1.414c0.388-0.466,0.708-0.954,0.953-1.445c0.164-0.329,0.031-0.728-0.297-0.891
		c-0.328-0.164-0.727-0.031-0.891,0.297c-0.526,1.052-1.476,2.098-2.791,2.85c-0.862,0.492-1.878,0.855-3.032,1.008l-0.019,0.002
		c-0.354,0.046-0.721,0.072-1.1,0.076c-0.538,0.005-1.051-0.037-1.538-0.121c-0.018-0.003-0.034-0.006-0.051-0.009
		c-0.825-0.146-1.574-0.411-2.238-0.754c-0.015-0.015-0.031-0.029-0.048-0.043c-0.083-0.068-0.178-0.113-0.276-0.135
		c-0.597-0.346-1.117-0.756-1.558-1.199c-0.012-0.013-0.023-0.025-0.037-0.037c-0.507-0.518-0.906-1.08-1.185-1.638
		c-0.165-0.327-0.563-0.46-0.891-0.297c-0.328,0.164-0.461,0.563-0.297,0.891c0.23,0.459,0.524,0.919,0.879,1.362l-1.296,0.75
		c-0.318,0.184-0.427,0.591-0.242,0.909c0.183,0.318,0.591,0.426,0.909,0.243l1.569-0.909c0.302,0.272,0.63,0.529,0.984,0.767
		l-1.088,1.33c-0.233,0.284-0.191,0.704,0.094,0.938c0.284,0.233,0.704,0.191,0.938-0.094l1.233-1.506
		c0.494,0.233,1.026,0.428,1.592,0.575l-0.438,1.284c-0.118,0.348,0.069,0.726,0.417,0.844c0.349,0.118,0.726-0.069,0.845-0.417
		l0.5-1.467c0.398,0.045,0.81,0.067,1.236,0.063c0.185-0.002,0.366-0.008,0.546-0.019l0.044,1.34
		c0.011,0.366,0.318,0.655,0.685,0.643c0.367-0.011,0.654-0.319,0.643-0.685l-0.047-1.463c0.564-0.108,1.097-0.26,1.598-0.448
		l0.903,1.755c0.168,0.326,0.57,0.454,0.896,0.286c0.326-0.168,0.455-0.57,0.286-0.896L38.9,22.761
		c0.042-0.023,0.083-0.045,0.123-0.069c0.526-0.3,1.003-0.643,1.429-1.014l1.805,1.488c0.283,0.232,0.702,0.192,0.935-0.091
		C43.425,22.792,43.384,22.373,43.101,22.14L43.101,22.14z"/>
</g>
<g>
	<path fill="#5ECA59" d="M434.173,7.887c-18.229,0-33,14.774-33,33c0,18.228,14.771,33,33,33c18.228,0,33-14.771,33-33
		C467.173,22.661,452.397,7.887,434.173,7.887L434.173,7.887z M434.173,70.414c-16.308,0-29.524-13.218-29.524-29.527
		c0-16.304,13.221-29.525,29.524-29.525s29.526,13.221,29.526,29.525C463.7,57.196,450.479,70.414,434.173,70.414L434.173,70.414z
		 M452.136,29.764c-1.136-1.035-2.982-1.035-4.125,0l-18.502,16.801l-9.174-8.334c-1.143-1.034-2.989-1.034-4.131,0
		c-1.137,1.036-1.137,2.714,0,3.747l10.709,9.724c0.124,0.196,0.271,0.383,0.463,0.552c0.586,0.533,1.362,0.791,2.133,0.775
		c0.771,0.016,1.547-0.242,2.136-0.775c0.188-0.169,0.345-0.354,0.469-0.552l20.022-18.19
		C453.277,32.479,453.277,30.8,452.136,29.764L452.136,29.764z"/>
</g>
<g>
	<g>
		<g>
			<rect x="391.226" y="93.035" fill="none" width="97.566" height="74.875"/>
			<g>
				<g>
					<g>
						<g>
							<g>
								<defs>
									<rect id="SVGID_2_" x="379.88" y="82.447" width="113.448" height="95.294"/>
								</defs>
								<clipPath id="SVGID_3_">
									<use xlink:href="#SVGID_2_"  overflow="visible"/>
								</clipPath>
								<g clip-path="url(#SVGID_3_)">
									<g>
										<g>
											<g>
												<g>
													<g>
														<defs>
															<rect id="SVGID_4_" x="361.729" y="52.193" width="157.314" height="157.314"/>
														</defs>
														<clipPath id="SVGID_5_">
															<use xlink:href="#SVGID_4_"  overflow="visible"/>
														</clipPath>
														<g clip-path="url(#SVGID_5_)">
															<g>
																<g>
																	<g>
																		<g>
																			<defs>
																				<path id="SVGID_6_" d="M453.794,164.79c-1.166,0.81-1.978,0.884-3.269,0.237
																					c-1.368-0.684-2.812-1.33-4.387-0.979c-1.432,0.318-2.646,1.19-4.06,1.555
																					c-1.553,0.399-3.019-0.754-4.324-1.365c-1.224-0.571-2.604-0.725-3.883-0.229
																					c-1.251,0.487-2.236,1.623-3.625,1.737c-1.661,0.138-3.037-0.917-4.521-1.431
																					c-1.525-0.531-2.966-0.211-4.368,0.513c-0.782,0.401-1.562,1.078-2.507,0.952
																					c-0.935-0.126-1.591-0.916-2.428-1.273c-2.33-0.996-3.953,0.668-6.006,1.375
																					c-1.411,0.486-3.185-1.174-4.439-1.638c-1.851-0.683-3.576-0.117-4.802,1.377
																					c-1.123,1.374,0.854,2.783,1.988,1.396c0.693-0.849,1.176-1.071,2.191-0.603
																					c1.072,0.497,2.043,1.146,3.174,1.533c1.229,0.421,2.444,0.153,3.596-0.343
																					c1.126-0.484,2.289-1.706,3.534-0.926c1.156,0.728,2.104,1.268,3.53,1.315c1.444,0.049,2.682-0.878,3.896-1.502
																					c1.396-0.716,2.71,0.379,3.983,0.864c1.597,0.607,3.396,0.834,5.021,0.21c1.084-0.417,1.946-1.31,3.052-1.634
																					c1.267-0.371,3.009,1.133,4.146,1.553c1.347,0.497,2.823,0.469,4.177,0.035c1.493-0.479,2.803-1.672,4.44-1.225
																					c1.329,0.362,2.354,1.336,3.798,1.42c1.447,0.082,2.586-0.465,3.73-1.264c0.489-0.34,0.996-0.667,1.61-0.693
																					c0.549-0.024,1.148,0.44,1.594,0.697c1.436,0.83,2.9,1.348,4.575,1.374c1.034,0.017,1.969-0.224,2.907-0.621
																					c0.771-0.329,1.409-0.917,2.203-1.212c1.313-0.488,2.521,0.83,3.601,1.378c1.446,0.733,2.842,0.638,4.32,0.084
																					c0.702-0.263,1.386-0.571,2.097-0.813c0.271-0.092,0.561-0.176,0.843-0.197c0.354-0.025,0.16-0.053,0.352,0.145
																					c1.24,1.303,3.227-0.097,1.987-1.395c-1.783-1.871-4.313-0.482-6.28,0.254c-1.044,0.391-1.65,0.277-2.603-0.294
																					c-1.044-0.629-1.986-1.321-3.247-1.453c-1.311-0.137-2.489,0.382-3.576,1.046
																					c-1.413,0.865-2.912,1.19-4.518,0.523c-1.221-0.51-2.243-1.381-3.564-1.645c-0.242-0.048-0.479-0.07-0.719-0.07
																					C455.846,163.563,454.755,164.122,453.794,164.79 M455.135,156.693c-1.386,0.98-2.351,1.07-3.884,0.287
																					c-1.625-0.825-3.338-1.609-5.21-1.185c-1.699,0.388-3.144,1.443-4.823,1.884
																					c-1.844,0.484-3.584-0.912-5.139-1.652c-1.453-0.691-3.104-0.877-4.613-0.276
																					c-1.488,0.591-2.659,1.966-4.311,2.104c-1.977,0.166-3.607-1.11-5.369-1.732
																					c-1.816-0.643-3.523-0.253-5.193,0.621c-0.932,0.486-1.854,1.305-2.977,1.15
																					c-1.108-0.15-1.894-1.106-2.885-1.541c-2.771-1.205-4.697,0.809-7.141,1.666
																					c-1.677,0.589-3.784-1.422-5.273-1.982c-2.199-0.826-4.253-0.143-5.705,1.667
																					c-1.335,1.663,1.015,3.208,2.359,1.526c0.825-1.026,1.397-1.297,2.606-0.729
																					c1.275,0.602,2.428,1.387,3.771,1.855c1.458,0.51,2.906,0.187,4.271-0.414c1.338-0.588,2.721-2.065,4.198-1.12
																					c1.375,0.879,2.505,1.532,4.194,1.592c1.722,0.06,3.188-1.062,4.632-1.817c1.653-0.865,3.223,0.459,4.733,1.047
																					c1.896,0.736,4.037,1.011,5.966,0.255c1.286-0.505,2.313-1.585,3.627-1.979c1.5-0.447,3.571,1.372,4.924,1.881
																					c1.604,0.602,3.355,0.567,4.966,0.043c1.771-0.578,3.33-2.023,5.274-1.482c1.579,0.439,2.797,1.617,4.516,1.719
																					c1.721,0.102,3.069-0.563,4.438-1.529c0.581-0.41,1.186-0.806,1.914-0.838c0.651-0.031,1.364,0.532,1.896,0.844
																					c1.701,1.006,3.444,1.631,5.438,1.664c1.229,0.021,2.339-0.271,3.454-0.754
																					c0.921-0.396,1.677-1.108,2.618-1.466c1.563-0.593,2.996,1.005,4.275,1.667c1.721,0.889,3.38,0.771,5.138,0.104
																					c0.835-0.318,1.646-0.693,2.489-0.985c0.32-0.11,0.661-0.214,1.003-0.239c0.421-0.033,0.188-0.063,0.41,0.176
																					c1.478,1.576,3.834,0.043,2.363-1.527c-2.12-2.266-5.123-0.584-7.463,0.307
																					c-1.242,0.473-1.962,0.338-3.09-0.355c-1.24-0.762-2.364-1.6-3.86-1.758c-1.556-0.166-2.96,0.461-4.251,1.266
																					c-1.682,1.048-3.461,1.441-5.365,0.634c-1.448-0.614-2.665-1.671-4.237-1.989
																					c-0.287-0.059-0.57-0.086-0.854-0.086C457.572,155.209,456.276,155.885,455.135,156.693 M423.738,134.913
																					c-0.438,0.435-0.438,1.142,0.001,1.575l1.477,1.477l-1.477,1.475c-0.438,0.436-0.438,1.143-0.001,1.578
																					c0.435,0.434,1.141,0.435,1.575-0.002l1.478-1.476l1.476,1.476c0.437,0.436,1.144,0.437,1.576,0.002
																					c0.438-0.435,0.438-1.142-0.001-1.578l-1.477-1.475l1.477-1.477c0.438-0.434,0.438-1.141,0.001-1.575
																					c-0.217-0.218-0.502-0.326-0.788-0.326c-0.285,0-0.567,0.109-0.788,0.327l-1.477,1.477l-1.477-1.477
																					c-0.22-0.218-0.503-0.327-0.789-0.327C424.239,134.587,423.954,134.695,423.738,134.913 M450.194,134.913
																					c-0.438,0.435-0.438,1.142,0,1.575l1.478,1.477l-1.478,1.475c-0.437,0.436-0.438,1.143,0,1.578
																					c0.435,0.434,1.142,0.435,1.572-0.002l1.479-1.476l1.476,1.476c0.438,0.436,1.145,0.437,1.576,0.002
																					c0.437-0.435,0.438-1.142-0.001-1.578l-1.477-1.475l1.477-1.477c0.438-0.434,0.438-1.141,0.001-1.575
																					c-0.217-0.218-0.502-0.326-0.787-0.326c-0.286,0-0.568,0.109-0.789,0.327l-1.476,1.477l-1.479-1.477
																					c-0.217-0.218-0.503-0.327-0.786-0.327C450.696,134.587,450.411,134.695,450.194,134.913 M403.379,108.189
																					c-0.541,0.197-1.309,0.672-1.747,1.419c-0.926-0.692-2.162-0.604-2.852-0.388
																					c-0.332,0.105-0.518,0.455-0.408,0.785c0.104,0.328,0.459,0.512,0.793,0.409
																					c0.164-0.05,1.604-0.446,2.144,0.777c0.021,0.159,0.055,0.323,0.104,0.493c0.082,0.274,0.334,0.451,0.605,0.451
																					c0.063,0,0.119-0.008,0.181-0.024c0.336-0.097,0.526-0.444,0.432-0.776c-0.395-1.332,1.025-1.91,1.191-1.973
																					c0.326-0.12,0.493-0.48,0.372-0.805c-0.098-0.254-0.337-0.409-0.597-0.409
																					C403.525,108.15,403.451,108.163,403.379,108.189 M414.171,100.962c-0.714,0.265-1.725,0.896-2.304,1.892
																					c-1.221-0.922-2.854-0.805-3.758-0.514c-0.438,0.139-0.681,0.606-0.54,1.045
																					c0.139,0.439,0.604,0.684,1.045,0.547c0.219-0.066,2.114-0.596,2.825,1.037
																					c0.023,0.211,0.067,0.432,0.138,0.658c0.104,0.365,0.438,0.602,0.802,0.602c0.077,0,0.155-0.01,0.233-0.033
																					c0.439-0.131,0.694-0.594,0.564-1.036c-0.521-1.774,1.354-2.546,1.571-2.629c0.431-0.161,0.649-0.64,0.49-1.072
																					c-0.123-0.338-0.443-0.546-0.783-0.546C414.363,100.911,414.266,100.928,414.171,100.962 M468.527,95.145
																					v27.957c-5.228-10.596-16.144-17.9-28.729-17.9c-17.648,0-32.013,14.359-32.013,32.01
																					c0,5.363,1.325,10.422,3.666,14.866c0.001-0.001,0.003-0.002,0.005-0.003c0.295,0.472,0.854,0.77,1.455,0.77
																					c0.886,0,1.58-0.725,1.58-1.617c0-0.314-0.086-0.608-0.235-0.856c0.001-0.001,0.002-0.001,0.004-0.003
																					c-2.04-3.943-3.189-8.417-3.189-13.154c0-15.841,12.89-28.729,28.729-28.729c8.067,0,15.369,3.343,20.593,8.715
																					c5.034,5.178,8.142,12.241,8.142,20.015c0,4.395-0.99,8.561-2.765,12.287c-0.134,0.229-0.212,0.491-0.212,0.77
																					c0,0.896,0.809,1.621,1.688,1.621c0.571,0,1.079-0.291,1.364-0.739l0.007,0.004
																					c0.014-0.024,0.021-0.052,0.037-0.077c0.03-0.059,0.063-0.12,0.088-0.184c1.972-4.149,3.07-8.789,3.07-13.682
																					c0-0.751-0.023-1.496-0.074-2.234V98.571l6.695,5.823c0.665,0.576,1.681,0.508,2.261-0.16
																					c0.576-0.666,0.511-1.68-0.156-2.258l-9.229-8.021c-0.26-0.227-0.57-0.354-0.894-0.384
																					c-0.092-0.017-0.188-0.024-0.281-0.024C469.247,93.543,468.527,94.262,468.527,95.145"/>
																			</defs>
																			<clipPath id="SVGID_7_">
																				<use xlink:href="#SVGID_6_"  overflow="visible"/>
																			</clipPath>
																			<rect x="389.54" y="90.867" clip-path="url(#SVGID_7_)" fill="#CCCCCC" width="101.692" height="79.967"/>
																		</g>
																	</g>
																</g>
															</g>
														</g>
													</g>
												</g>
											</g>
										</g>
									</g>
								</g>
							</g>
						</g>
						<circle fill="#38A8FD" cx="523.313" cy="43" r="29"/>
						<g>
							<polygon id="SVGID_1_" fill="#FFFFFF" points="535.581,32.946 533.068,30.435 523.016,40.487 512.961,30.434 510.447,32.948 
								520.502,43.001 510.449,53.055 512.961,55.567 523.016,45.514 533.068,55.567 535.583,53.055 525.527,43 							"/>
						</g>
						<polygon fill="none" points="535.581,32.946 533.068,30.435 523.016,40.487 512.961,30.434 510.447,32.948 520.502,43.001 
							510.449,53.055 512.961,55.567 523.016,45.514 533.068,55.567 535.583,53.055 525.527,43 						"/>
						<polygon fill="none" points="535.581,32.946 533.068,30.435 523.016,40.487 512.961,30.434 510.447,32.948 520.502,43.001 
							510.449,53.055 512.961,55.567 523.016,45.514 533.068,55.567 535.583,53.055 525.527,43 						"/>
					</g>
				</g>
			</g>
		</g>
	</g>
</g>
</svg>
